<svg width="1920" height="1310" viewBox="0 0 1920 1310" fill="none" xmlns="http://www.w3.org/2000/svg">
<g clip-path="url(#clip0_403_578)">
<path d="M100.906 996.169C70.7887 979.075 18.4897 979.889 -3.89502 982.433V1309.56H1986.82L1965.96 991.591L1868.79 1014.99C1855.06 997.356 1816.9 958.115 1774.17 942.242C1731.43 926.369 1635.62 935.629 1593.05 942.242L1542.18 927.997C1535.23 927.658 1519.29 928.608 1511.15 935.12C1503.01 941.632 1495.88 975.48 1493.34 991.591C1493.17 989.556 1489.88 983.654 1478.08 976.328C1466.27 969.002 1400.24 950.552 1368.7 942.242C1354.86 936.951 1311.04 942.073 1290.86 945.295C1285.57 929.015 1236.76 901.543 1213.02 889.842H1109.24C1095.4 889.842 1046.83 914.261 1024.28 926.471C1015.46 916.127 990.497 894.319 961.193 889.842C931.889 885.365 901.84 906.291 890.478 917.314C850.592 884.754 791.781 879.328 767.362 880.684C735.209 880.684 650.181 932.237 611.686 958.013C594.999 931.559 558.268 932.407 541.988 936.137L480.43 945.295L468.729 926.471L406.153 905.104L311.018 963.61L232.671 905.104C224.938 906.325 211.473 919.858 205.708 926.471L173.148 930.541L133.975 952.926L100.906 996.169Z" fill="#0D1D2C"/>
<path d="M223.005 1209.84C218.935 1116.23 227.753 967.679 232.671 905.103C225.345 905.103 211.643 919.348 205.708 926.471L173.148 930.541L133.975 952.925L100.906 995.66L111.59 1018.55C94.4961 1034.43 86.4919 1168.97 84.6265 1234.26L123.291 1240.87L223.005 1209.84Z" fill="url(#paint0_linear_403_578)"/>
<path d="M483.991 1209.33L406.662 904.594L468.728 926.47L480.43 945.294C487.043 944.616 509.428 941.631 546.058 935.119C582.687 928.607 605.072 947.668 611.686 958.013C612.873 960.556 618.503 970.833 631.527 991.59C644.55 1012.35 662.39 1057.9 669.682 1078.08C668.326 1078.92 665.002 1082.55 662.56 1090.29C660.118 1098.02 661.543 1149.81 662.56 1174.74L641.193 1168.12L621.352 1205.77L548.601 1194.07L522.147 1239.35L483.991 1209.33Z" fill="url(#paint1_linear_403_578)"/>
<path d="M750.064 985.807L757.695 881.515C773.568 877.852 801.617 881.684 813.657 884.058C849.473 907.257 843.164 1016.84 835.533 1068.73H830.446C822.713 1047.57 803.143 1039.23 794.325 1037.7C787.813 1022.23 762.104 996.661 750.064 985.807Z" fill="url(#paint2_linear_403_578)"/>
<path d="M812.64 1081.96C815.489 1078.3 813.827 1064.49 812.64 1058.05C836.652 1080.84 863.005 1180.83 873.18 1227.97L806.535 1189.31L796.869 1079.93L803.991 1085.01C805.687 1085.52 809.791 1085.62 812.64 1081.96Z" fill="url(#paint3_linear_403_578)"/>
<path d="M973.912 1085.01C985.715 1012.57 939.487 931.372 914.897 899.83C927.514 891.69 938.808 889.655 942.878 889.655C970.859 891.69 1013.09 974.615 1023.26 990.386C1031.4 1003 1030.38 1055.34 1028.86 1079.93L1012.58 1111.47L973.912 1085.01Z" fill="url(#paint4_linear_403_578)"/>
<path d="M1046.15 1014.81L1062.94 959.862C1079.63 959.862 1098.72 966.645 1106.19 970.036L1155.02 1031.59C1152.65 1052.28 1147.5 1096.41 1145.87 1107.4C1144.24 1118.39 1145.19 1152.68 1145.87 1168.45L1110.26 1133.85L1046.15 1014.81Z" fill="url(#paint5_linear_403_578)"/>
<path d="M1136.71 937.985L1116.36 890.672L1212.51 889.146L1215.57 954.774C1233.88 959.353 1271.43 970.24 1275.09 977.159C1278.75 984.078 1282.72 1050.93 1284.25 1083.49L1205.39 1080.94C1186.91 1052.45 1149.43 992.319 1147.39 979.702C1145.36 967.086 1139.42 946.634 1136.71 937.985Z" fill="url(#paint6_linear_403_578)"/>
<path d="M1350.38 975.124C1352.42 966.984 1363.78 949.348 1369.21 941.547C1396.51 949.687 1454.68 967.188 1468.92 972.072C1483.16 976.955 1491.14 986.995 1493.34 991.404L1505.04 1077.38L1507.58 1128.76C1504.36 1127.75 1496.39 1124.8 1490.29 1121.13C1484.18 1117.47 1452.13 1093.83 1436.87 1082.47L1354.45 1084.5C1352.25 1051.44 1348.35 983.264 1350.38 975.124Z" fill="url(#paint7_linear_403_578)"/>
<path d="M1709.56 933.407L1740.08 934.933C1746.36 935.781 1764.91 939.715 1788.92 948.669C1812.93 957.623 1852.17 996.491 1868.79 1014.81L1860.65 1039.23L1873.37 1132.33L1863.2 1143.52L1794.01 1132.33L1760.94 1115.54H1741.1L1721.26 1122.66L1709.56 933.407Z" fill="url(#paint8_linear_403_578)"/>
<path d="M50.0318 982.246C31.717 979.397 5.77108 981.398 -4.91256 982.755L-10 1011.24C0.853214 1009.55 28.0541 1006.26 50.0318 1006.67C72.0096 1007.07 100.567 1014.98 112.099 1018.88L100.906 995.982C79.539 986.316 72.9253 985.808 50.0318 982.246Z" fill="url(#paint9_linear_403_578)"/>
<path d="M112.099 1018.88L100.906 995.982L133.466 952.739L172.639 930.354L205.708 926.284L203.673 956.809V932.389L188.41 1040.24L120.239 1060.59L188.41 956.809L95.8188 1078.4C101.11 1036.89 108.877 1021.42 112.099 1018.88Z" fill="url(#paint10_linear_403_578)"/>
<path d="M611.685 958.335C592.557 927.404 546.396 932.22 525.708 938.494L535.882 1030.58L552.671 1020.91L545.04 1099.26L627.456 1106.89L663.069 1059.07C653.708 1028.54 624.913 979.194 611.685 958.335Z" fill="url(#paint11_linear_403_578)"/>
<path d="M1128.57 1053.98L1142.31 1046.35L1199.29 1103.84L1208.95 1146.57L1191.15 1175.57L1199.29 1220.34L1185.04 1260.02L1116.36 1078.4L1128.57 1053.98Z" fill="url(#paint12_linear_403_578)"/>
<path d="M1274.07 1285.97L1218.11 1165.39L1228.79 1144.03H1255.76L1292.89 1248.83L1274.07 1285.97Z" fill="url(#paint13_linear_403_578)"/>
<path d="M1419.57 1258.49L1447.55 1103.33L1476.55 1095.19L1503.01 1118.59L1485.2 1263.07L1419.57 1258.49Z" fill="url(#paint14_radial_403_578)"/>
<path d="M1608.32 1122.66L1532 1111.47L1526.41 1153.69L1630.19 1185.24C1630.87 1179.47 1631.31 1165.6 1627.65 1156.24C1623.98 1146.88 1613.23 1129.95 1608.32 1122.66Z" fill="url(#paint15_linear_403_578)"/>
<path d="M1825.55 1291.56L1792.48 1133.85L1865.23 1143.01L2009.72 1312.42L1901.86 1317L1825.55 1291.56Z" fill="url(#paint16_linear_403_578)"/>
<path d="M1809.78 952.739L1753.82 935.951L1775.69 1004.63L1784.34 1082.47L1869.81 1104.35L1861.16 1038.72L1869.81 1015.31L1809.78 952.739Z" fill="url(#paint17_linear_403_578)"/>
<path d="M1138.24 944.599L1115.85 890.163L1212.51 889.146L1214.55 941.547L1187.58 934.933L1138.24 944.599Z" fill="url(#paint18_linear_403_578)"/>
<path d="M992.226 937.986C976.353 910.31 953.731 894.234 944.404 889.655C977.778 884.771 1011.56 912.04 1024.28 926.285L1024.79 993.948C1020.55 986.825 1008.1 965.661 992.226 937.986Z" fill="url(#paint19_linear_403_578)"/>
<path d="M1136.2 1089.59C1135.69 1088.57 1152.31 1194.9 1164.69 1249.85L1181.48 1251.37C1167.23 1198.46 1137.29 1091.78 1136.2 1089.59Z" fill="#0D1D2C"/>
<path d="M1255.77 1184.73C1255.04 1184.17 1278.94 1243.01 1296.74 1273.42L1320.88 1274.27C1300.39 1244.98 1257.34 1185.94 1255.77 1184.73Z" fill="#0D1D2C"/>
<path d="M1419.59 1123.68C1418.86 1123.12 1442.75 1181.96 1460.55 1212.37L1484.69 1213.22C1464.21 1183.93 1421.16 1124.89 1419.59 1123.68Z" fill="#0D1D2C"/>
<path d="M1822.51 1194.91C1821.78 1194.34 1845.68 1253.19 1863.48 1283.6L1887.62 1284.44C1867.13 1255.16 1824.08 1196.11 1822.51 1194.91Z" fill="#0D1D2C"/>
<path d="M1853.77 1221.18C1852.85 1221.13 1905.85 1256.12 1937.73 1271.12L1958.11 1258.15C1924.65 1245.6 1855.74 1221.29 1853.77 1221.18Z" fill="#0D1D2C"/>
<path d="M580.159 1034.36C579.238 1034.31 632.241 1069.3 664.126 1084.29L684.505 1071.33C651.047 1058.78 582.137 1034.47 580.159 1034.36Z" fill="#0D1D2C"/>
</g>
<defs>
<linearGradient id="paint0_linear_403_578" x1="158.649" y1="905.103" x2="232.162" y2="1260.02" gradientUnits="userSpaceOnUse">
<stop stop-color="#1C344B"/>
<stop offset="0.968278" stop-color="#1C344B" stop-opacity="0"/>
</linearGradient>
<linearGradient id="paint1_linear_403_578" x1="538.172" y1="904.594" x2="469.237" y2="1159.8" gradientUnits="userSpaceOnUse">
<stop stop-color="#1C344B"/>
<stop offset="1" stop-color="#1C344B" stop-opacity="0"/>
</linearGradient>
<linearGradient id="paint2_linear_403_578" x1="795.754" y1="880" x2="726.662" y2="974.106" gradientUnits="userSpaceOnUse">
<stop stop-color="#1C344B"/>
<stop offset="1" stop-color="#1C344B" stop-opacity="0"/>
</linearGradient>
<linearGradient id="paint3_linear_403_578" x1="893.021" y1="1183.71" x2="753.625" y2="1081.96" gradientUnits="userSpaceOnUse">
<stop stop-color="#1C344B"/>
<stop offset="1" stop-color="#1C344B" stop-opacity="0"/>
</linearGradient>
<linearGradient id="paint4_linear_403_578" x1="941.352" y1="879.989" x2="953.053" y2="1111.47" gradientUnits="userSpaceOnUse">
<stop stop-color="#1C344B"/>
<stop offset="1" stop-color="#1C344B" stop-opacity="0"/>
</linearGradient>
<linearGradient id="paint5_linear_403_578" x1="1194.2" y1="882.532" x2="1052.77" y2="1046.35" gradientUnits="userSpaceOnUse">
<stop offset="0.553776" stop-color="#1C344B"/>
<stop offset="0.968102" stop-color="#1C344B" stop-opacity="0"/>
</linearGradient>
<linearGradient id="paint6_linear_403_578" x1="1200.3" y1="889.146" x2="1199.79" y2="1028.54" gradientUnits="userSpaceOnUse">
<stop stop-color="#1C344B"/>
<stop offset="1" stop-color="#1C344B" stop-opacity="0"/>
</linearGradient>
<linearGradient id="paint7_linear_403_578" x1="1442.97" y1="958.844" x2="1397.7" y2="1066.19" gradientUnits="userSpaceOnUse">
<stop stop-color="#1C344B"/>
<stop offset="1" stop-color="#1C344B" stop-opacity="0"/>
</linearGradient>
<linearGradient id="paint8_linear_403_578" x1="1849.97" y1="997.508" x2="1712.61" y2="1016.84" gradientUnits="userSpaceOnUse">
<stop stop-color="#1C344B"/>
<stop offset="1" stop-color="#1C344B" stop-opacity="0"/>
</linearGradient>
<linearGradient id="paint9_linear_403_578" x1="98.3626" y1="946.126" x2="7.29732" y2="1004.12" gradientUnits="userSpaceOnUse">
<stop stop-color="#3B8EA8"/>
<stop offset="1" stop-color="#3B8EA8" stop-opacity="0"/>
</linearGradient>
<linearGradient id="paint10_linear_403_578" x1="3.22737" y1="866.761" x2="270.318" y2="1104.34" gradientUnits="userSpaceOnUse">
<stop offset="0.19223" stop-color="#3B8EA8"/>
<stop offset="0.624922" stop-color="#3B8EA8" stop-opacity="0"/>
</linearGradient>
<linearGradient id="paint11_linear_403_578" x1="512.48" y1="813.343" x2="669.682" y2="1188.8" gradientUnits="userSpaceOnUse">
<stop offset="0.197114" stop-color="#3B8EA8"/>
<stop offset="0.695469" stop-color="#3B8EA8" stop-opacity="0"/>
</linearGradient>
<linearGradient id="paint12_linear_403_578" x1="1150.95" y1="994.965" x2="1237.44" y2="1241.2" gradientUnits="userSpaceOnUse">
<stop offset="0.0858881" stop-color="#3B8EA8"/>
<stop offset="1" stop-color="#3B8EA8" stop-opacity="0"/>
</linearGradient>
<linearGradient id="paint13_linear_403_578" x1="1233.88" y1="1105.36" x2="1363.1" y2="1319.54" gradientUnits="userSpaceOnUse">
<stop stop-color="#3B8EA8"/>
<stop offset="0.679302" stop-color="#3B8EA8" stop-opacity="0"/>
</linearGradient>
<radialGradient id="paint14_radial_403_578" cx="0" cy="0" r="1" gradientUnits="userSpaceOnUse" gradientTransform="translate(1434.83 1248.83) rotate(98.0863) scale(188.07 220.412)">
<stop offset="0.326155" stop-color="#327891" stop-opacity="0"/>
<stop offset="1" stop-color="#327891"/>
</radialGradient>
<linearGradient id="paint15_linear_403_578" x1="1536.07" y1="1094.68" x2="1552.35" y2="1148.1" gradientUnits="userSpaceOnUse">
<stop stop-color="#36829B"/>
<stop offset="1" stop-color="#36829B" stop-opacity="0"/>
</linearGradient>
<linearGradient id="paint16_linear_403_578" x1="1817.92" y1="1109.43" x2="1881" y2="1263.07" gradientUnits="userSpaceOnUse">
<stop stop-color="#37839C"/>
<stop offset="1" stop-color="#37839C" stop-opacity="0"/>
</linearGradient>
<linearGradient id="paint17_linear_403_578" x1="1811.31" y1="978.685" x2="1811.31" y2="1077.89" gradientUnits="userSpaceOnUse">
<stop stop-color="#337A92"/>
<stop offset="1" stop-color="#337A92" stop-opacity="0"/>
</linearGradient>
<linearGradient id="paint18_linear_403_578" x1="1165.2" y1="889.146" x2="1165.2" y2="944.599" gradientUnits="userSpaceOnUse">
<stop stop-color="#337A92"/>
<stop offset="1" stop-color="#337A92" stop-opacity="0"/>
</linearGradient>
<linearGradient id="paint19_linear_403_578" x1="979.508" y1="896.269" x2="1039.03" y2="987.334" gradientUnits="userSpaceOnUse">
<stop stop-color="#2F7188"/>
<stop offset="0.869203" stop-color="#2F7188" stop-opacity="0"/>
</linearGradient>
<clipPath id="clip0_403_578">
<rect width="1920" height="1310" fill="white"/>
</clipPath>
</defs>
</svg>
