<svg width="372" height="759" viewBox="0 0 372 759" fill="none" xmlns="http://www.w3.org/2000/svg">
<g clip-path="url(#clip0_528_142)">
<path d="M268.336 484.5L329.336 398L274.336 490.5L280.336 545C285.536 590.2 251.836 639.833 234.336 659L219.336 607L153.836 585.5C155.436 575.5 110.503 571.333 87.8364 570.5C79.0031 563.167 63.6365 543.9 72.8365 525.5C82.0365 507.1 135.336 473.833 160.836 459.5C136.836 478.333 88.6364 522.5 87.8364 548.5C87.0364 574.5 136.17 559.333 160.836 548.5L248.336 618C255.003 606.167 268.336 575.7 268.336 548.5V484.5Z" fill="#6BE7F1"/>
<path d="M200.029 568.423L210.664 575.467L217.759 523.64L123.933 403.914C115.516 428.049 121.688 448.772 125.827 456.116L188.52 507.295L200.029 568.423Z" fill="#081D1F"/>
<path d="M318.471 472.091L266.73 394.008C247.803 370.817 238.177 367.413 210.543 355.922C182.908 344.431 151.589 370.17 130.817 393.57C114.199 412.29 122.647 438.671 128.948 449.522L196.442 503.353L210.814 575.475C219.441 581.078 240.753 591.477 256.984 588.244C277.272 584.204 311.367 545.062 319.467 518.895C325.947 497.962 321.503 478.97 318.471 472.091Z" fill="url(#paint0_radial_528_142)"/>
<ellipse cx="27.467" cy="31.7272" rx="27.467" ry="31.7272" transform="matrix(-0.664569 -0.747226 -0.660133 0.751149 302.122 511.593)" fill="#D9D9D9"/>
<ellipse cx="27.7843" cy="31.224" rx="27.7843" ry="31.224" transform="matrix(-0.576102 -0.817378 -0.769817 0.638264 239.811 429.06)" fill="#D9D9D9"/>
<path d="M287.5 358C291.9 361.2 289.333 377.667 287.5 385.5C302.3 370.3 303 352.833 301.5 346L228 337L224 412C199.2 424.8 144 401.333 119.5 388L150 355L191 282.5C176.333 261 146.6 213.6 145 196C143.4 178.4 196.333 124.667 223 100L119.5 181C126.5 200.167 144.2 245.9 159 275.5C173.8 305.1 131.833 362.833 109 388C117 414.8 194.667 425.167 232.5 427L248 352C254.8 347.2 277.167 354 287.5 358Z" fill="#6BE7F1"/>
</g>
<defs>
<radialGradient id="paint0_radial_528_142" cx="0" cy="0" r="1" gradientUnits="userSpaceOnUse" gradientTransform="translate(241.092 498.332) rotate(143.565) scale(95.9871 134.983)">
<stop stop-color="#16484F"/>
<stop offset="1" stop-color="#0F2D31"/>
</radialGradient>
<clipPath id="clip0_528_142">
<rect width="372" height="759" fill="white"/>
</clipPath>
</defs>
</svg>
