<svg width="1920" height="1310" viewBox="0 0 1920 1310" fill="none" xmlns="http://www.w3.org/2000/svg">
<g clip-path="url(#clip0_403_578)">
<g filter="url(#filter0_f_403_578)">
<path d="M-274.069 566.393C-274.078 566.38 -274.088 566.367 -274.097 566.355C-274.088 566.367 -274.078 566.38 -274.069 566.393C-254.8 592.541 -176.317 647.769 -16.2354 659.807C143.924 671.851 245.957 680.016 276.953 682.592L749.482 834.559L313.53 737.981L377.121 789.417C390.531 805.556 418.141 843.238 421.303 864.85C424.464 886.461 420.996 906.945 418.867 914.485L583.617 978.275L381.689 926.095C392.764 913.22 410.514 881.132 392.912 855.78C370.91 824.089 298.231 759.348 278.522 749.361C262.755 741.371 104.173 722.796 26.8526 714.507C-9.84273 696.074 -93.2521 657.851 -133.327 652.429C-183.409 645.654 -234.355 620.326 -274.069 566.393Z" fill="#6BE7F1"/>
<path d="M-274.097 566.355C-274.088 566.367 -274.078 566.38 -274.069 566.393C-274.078 566.38 -274.088 566.367 -274.097 566.355Z" fill="#6BE7F1"/>
</g>
<g opacity="0.2" filter="url(#filter1_f_403_578)">
<path d="M-274.069 566.393C-274.078 566.38 -274.088 566.367 -274.097 566.355C-274.088 566.367 -274.078 566.38 -274.069 566.393C-254.8 592.541 -176.317 647.769 -16.2354 659.807C143.924 671.851 245.957 680.016 276.953 682.592L749.482 834.559L313.53 737.981L377.121 789.417C390.531 805.556 418.141 843.238 421.303 864.85C424.464 886.461 420.996 906.945 418.867 914.485L583.617 978.275L381.689 926.095C392.764 913.22 410.514 881.132 392.912 855.78C370.91 824.089 298.231 759.348 278.522 749.361C262.755 741.371 104.173 722.796 26.8526 714.507C-9.84273 696.074 -93.2521 657.851 -133.327 652.429C-183.409 645.654 -234.355 620.326 -274.069 566.393Z" fill="#F5F5F5"/>
<path d="M-274.097 566.355C-274.088 566.367 -274.078 566.38 -274.069 566.393C-274.078 566.38 -274.088 566.367 -274.097 566.355Z" fill="#F5F5F5"/>
</g>
<path d="M-274.069 566.393C-274.078 566.38 -274.088 566.367 -274.097 566.355C-274.088 566.367 -274.078 566.38 -274.069 566.393C-254.8 592.541 -176.317 647.769 -16.2354 659.807C143.924 671.851 245.957 680.016 276.953 682.592L749.482 834.559L313.53 737.981L377.121 789.417C390.531 805.556 418.141 843.238 421.303 864.85C424.464 886.461 420.996 906.945 418.867 914.485L583.617 978.275L381.689 926.095C392.764 913.22 410.514 881.132 392.912 855.78C370.91 824.089 298.231 759.348 278.522 749.361C262.755 741.371 104.173 722.796 26.8526 714.507C-9.84273 696.074 -93.2521 657.851 -133.327 652.429C-183.409 645.654 -234.355 620.326 -274.069 566.393Z" fill="#6BE7F1"/>
<path d="M-274.097 566.355C-274.088 566.367 -274.078 566.38 -274.069 566.393C-274.078 566.38 -274.088 566.367 -274.097 566.355Z" fill="#6BE7F1"/>
</g>
<defs>
<filter id="filter0_f_403_578" x="-296.097" y="544.355" width="1067.58" height="455.92" filterUnits="userSpaceOnUse" color-interpolation-filters="sRGB">
<feFlood flood-opacity="0" result="BackgroundImageFix"/>
<feBlend mode="normal" in="SourceGraphic" in2="BackgroundImageFix" result="shape"/>
<feGaussianBlur stdDeviation="11" result="effect1_foregroundBlur_403_578"/>
</filter>
<filter id="filter1_f_403_578" x="-294.097" y="546.355" width="1063.58" height="451.92" filterUnits="userSpaceOnUse" color-interpolation-filters="sRGB">
<feFlood flood-opacity="0" result="BackgroundImageFix"/>
<feBlend mode="normal" in="SourceGraphic" in2="BackgroundImageFix" result="shape"/>
<feGaussianBlur stdDeviation="10" result="effect1_foregroundBlur_403_578"/>
</filter>
<clipPath id="clip0_403_578">
<rect width="1920" height="1310" fill="white"/>
</clipPath>
</defs>
</svg>
