<svg width="1920" height="1310" viewBox="0 0 1920 1310" fill="none" xmlns="http://www.w3.org/2000/svg">
<g filter="url(#filter0_f_403_578)">
<path d="M1606.11 557.27C1579.53 547.504 1465.57 559.369 1411.91 566.523C1463.76 558.905 1575.02 543.242 1605.22 541.539C1635.43 539.835 1661.63 548.717 1670.96 553.37C1674.45 552.202 1678.93 550.881 1668.86 554.945C1656.28 560.025 1661.35 563.866 1655.07 577.331C1648.79 590.797 1632.58 647.796 1617.56 665.638C1605.55 679.912 1607.79 687.555 1610.41 689.592L1493.2 785.307C1326.5 880.387 1114.21 910.781 1004.22 915.602C993.584 916.264 983.466 916.519 973.975 916.32C982.893 916.318 993.027 916.093 1004.22 915.602C1137.96 907.284 1353.64 834.686 1435.7 790.25C1506.56 751.874 1560.13 694.937 1578.06 671.265C1613.98 643.406 1632.71 594.131 1637.59 572.976C1638.17 571.81 1632.69 567.037 1606.11 557.27Z" fill="#6BE7F1"/>
<path d="M1432.42 839.722L1451.78 791.285L1450.77 833.588L1445.89 850.374L1375.45 862.844C1303.58 873.112 1248.78 862.542 1230.36 855.973C1302.25 873.673 1395.02 852.514 1432.42 839.722Z" fill="#6BE7F1"/>
<path d="M1552.2 686.32L1538.06 706.783L1534.71 673.224L1579.97 653.434L1656.5 611.242L1651.95 608.099L1647.75 602.509L1633.24 599.2L1632.33 561.618L1643.51 553.218L1656.49 602.502L1675.55 608.954L1625.75 634.342L1544.85 676.537L1552.2 686.32Z" fill="#6BE7F1"/>
</g>
<g opacity="0.2" filter="url(#filter1_f_403_578)">
<path d="M1606.11 557.27C1579.53 547.504 1465.57 559.369 1411.91 566.523C1463.76 558.905 1575.02 543.242 1605.22 541.539C1635.43 539.835 1661.63 548.717 1670.96 553.37C1674.45 552.202 1678.93 550.881 1668.86 554.945C1656.28 560.025 1661.35 563.866 1655.07 577.331C1648.79 590.797 1632.58 647.796 1617.56 665.638C1605.55 679.912 1607.79 687.555 1610.41 689.592L1493.2 785.307C1326.5 880.387 1114.21 910.781 1004.22 915.602C993.584 916.264 983.466 916.519 973.975 916.32C982.893 916.318 993.027 916.093 1004.22 915.602C1137.96 907.284 1353.64 834.686 1435.7 790.25C1506.56 751.874 1560.13 694.937 1578.06 671.265C1613.98 643.406 1632.71 594.131 1637.59 572.976C1638.17 571.81 1632.69 567.037 1606.11 557.27Z" fill="#F5F5F5"/>
<path d="M1432.42 839.722L1451.78 791.285L1450.77 833.588L1445.89 850.374L1375.45 862.844C1303.58 873.112 1248.78 862.542 1230.36 855.973C1302.25 873.673 1395.02 852.514 1432.42 839.722Z" fill="#F5F5F5"/>
<path d="M1552.2 686.32L1538.06 706.783L1534.71 673.224L1579.97 653.434L1656.5 611.242L1651.95 608.099L1647.75 602.509L1633.24 599.2L1632.33 561.618L1643.51 553.218L1656.49 602.502L1675.55 608.954L1625.75 634.342L1544.85 676.537L1552.2 686.32Z" fill="#F5F5F5"/>
</g>
<path d="M1606.11 557.27C1579.53 547.504 1465.57 559.369 1411.91 566.523C1463.76 558.905 1575.02 543.242 1605.22 541.539C1635.43 539.835 1661.63 548.717 1670.96 553.37C1674.45 552.202 1678.93 550.881 1668.86 554.945C1656.28 560.025 1661.35 563.866 1655.07 577.331C1648.79 590.797 1632.58 647.796 1617.56 665.638C1605.55 679.912 1607.79 687.555 1610.41 689.592L1493.2 785.307C1326.5 880.387 1114.21 910.781 1004.22 915.602C993.584 916.264 983.466 916.519 973.975 916.32C982.893 916.318 993.027 916.093 1004.22 915.602C1137.96 907.284 1353.64 834.686 1435.7 790.25C1506.56 751.874 1560.13 694.937 1578.06 671.265C1613.98 643.406 1632.71 594.131 1637.59 572.976C1638.17 571.81 1632.69 567.037 1606.11 557.27Z" fill="#6BE7F1"/>
<path d="M1432.42 839.722L1451.78 791.285L1450.77 833.588L1445.89 850.374L1375.45 862.844C1303.58 873.112 1248.78 862.542 1230.36 855.973C1302.25 873.673 1395.02 852.514 1432.42 839.722Z" fill="#6BE7F1"/>
<path d="M1552.2 686.32L1538.06 706.783L1534.71 673.224L1579.97 653.434L1656.5 611.242L1651.95 608.099L1647.75 602.509L1633.24 599.2L1632.33 561.618L1643.51 553.218L1656.49 602.502L1675.55 608.954L1625.75 634.342L1544.85 676.537L1552.2 686.32Z" fill="#6BE7F1"/>
<defs>
<filter id="filter0_f_403_578" x="959.975" y="527.325" width="729.573" height="403.061" filterUnits="userSpaceOnUse" color-interpolation-filters="sRGB">
<feFlood flood-opacity="0" result="BackgroundImageFix"/>
<feBlend mode="normal" in="SourceGraphic" in2="BackgroundImageFix" result="shape"/>
<feGaussianBlur stdDeviation="7" result="effect1_foregroundBlur_403_578"/>
</filter>
<filter id="filter1_f_403_578" x="943.975" y="511.325" width="761.573" height="435.061" filterUnits="userSpaceOnUse" color-interpolation-filters="sRGB">
<feFlood flood-opacity="0" result="BackgroundImageFix"/>
<feBlend mode="normal" in="SourceGraphic" in2="BackgroundImageFix" result="shape"/>
<feGaussianBlur stdDeviation="15" result="effect1_foregroundBlur_403_578"/>
</filter>
</defs>
</svg>
