<svg width="1920" height="1310" viewBox="0 0 1920 1310" fill="none" xmlns="http://www.w3.org/2000/svg">
<path d="M1068.91 855.551L1095.54 843.872L1114.46 895.958L1040.88 920.717L961 901.564L1053.96 861.156L1040.88 895.958L1063.07 890.353L1068.91 855.551Z" fill="#299C90"/>
<path d="M1088.03 845.105L1112.56 825.952L1146.19 897.191L1128.44 907.235C1121.28 909.337 1104.85 911.813 1096.44 904.899C1088.03 897.985 1087.33 862.155 1088.03 845.105Z" fill="#9A9753"/>
<path d="M1131.01 826.185C1122.79 822.261 1115.28 824.55 1112.56 826.185C1112.56 866.92 1119.88 891.274 1123.54 898.359C1138.67 904.151 1148.22 896.724 1151.1 892.286C1144 886.493 1134.75 845.805 1131.01 826.185Z" fill="#6A6845"/>
<path d="M1183.78 826.429C1177.63 822.297 1141.11 842.787 1123.61 853.549C1120.54 869.046 1127.67 872.059 1131.61 871.629C1147.19 863.88 1179.42 847.608 1183.78 844.509C1189.22 840.635 1191.46 831.595 1183.78 826.429Z" fill="#299C90"/>
<path d="M1233 758L1239.53 714.503L1281.53 701.641L1336.35 493.277L1500.82 414L1590.17 429.201L1631 522.508C1601.22 514.012 1537.59 496.27 1521.35 493.277C1505.11 490.283 1415.05 528.667 1372.04 548.233L1318.62 758H1233Z" fill="#2BA597"/>
<path d="M1267.91 725.115L1288.82 699.855L1320.65 707.83L1435.89 595.898L1571.66 608.677L1623.02 652.832L1613.27 728.161C1597.47 711.252 1563.56 675.392 1554.32 667.221C1545.07 659.049 1472.65 648.839 1437.6 644.756L1322.72 758.123L1267.91 725.115Z" fill="#2BA597"/>
<path d="M1233 758L1239.53 714.503L1281.53 701.641L1336.35 493.277L1500.82 414L1590.17 429.201L1631 522.508C1601.22 514.012 1537.59 496.27 1521.35 493.277C1505.11 490.283 1415.05 528.667 1372.04 548.233L1318.62 758H1233Z" fill="url(#paint0_linear_403_578)"/>
<path d="M1267.91 725.115L1288.82 699.855L1320.65 707.83L1435.89 595.898L1571.66 608.677L1623.02 652.832L1613.27 728.161C1597.47 711.252 1563.56 675.392 1554.32 667.221C1545.07 659.049 1472.65 648.839 1437.6 644.756L1322.72 758.123L1267.91 725.115Z" fill="url(#paint1_linear_403_578)"/>
<g style="mix-blend-mode:overlay">
<path d="M1372 548.7L1336.38 494L1298.66 636.919L1294 727L1327.53 722.81L1372 548.7Z" fill="#868686"/>
</g>
<rect x="1132.91" y="646.722" width="153.712" height="138.887" rx="69.4434" transform="rotate(-14.7844 1132.91 646.722)" fill="#050E15"/>
<path d="M1192.76 758L1182 757.768L1220.12 713L1287 724.598L1272.97 729.237L1226.43 727.381L1192.76 758Z" fill="#081D1F"/>
<path d="M1158.32 621.463L1224.19 601.425C1246 597.697 1253.5 601.425 1275.77 610.978C1298.04 620.531 1306.71 657.344 1309.76 686.003C1312.2 708.93 1295.61 721.341 1287.02 724.681L1221.62 718.623L1181.77 758C1173.95 756.369 1156.12 750.031 1147.31 737.729C1136.29 722.351 1131.6 674.819 1137.69 652.218C1142.57 634.138 1153.48 624.181 1158.32 621.463Z" fill="url(#paint2_radial_403_578)"/>
<ellipse cx="1182.5" cy="671" rx="21.5" ry="28" fill="#D9D9D9"/>
<ellipse cx="1254.31" cy="655.892" rx="21.255" ry="27.795" transform="rotate(-26.6862 1254.31 655.892)" fill="#D9D9D9"/>
<path d="M1341.74 761.838L1313.71 731C1290.11 741.279 1243.29 767.678 1244.79 791.041C1246.28 814.403 1198.22 885.968 1174 918.831L1186.62 986.114C1190.74 975.445 1200.73 951.585 1207.64 941.492C1214.56 931.4 1240.89 919.065 1253.2 914.159C1267.68 913.38 1300.86 912.29 1317.68 914.159C1334.5 916.028 1409.57 973.498 1445 1002C1418.13 956.366 1362.81 858.37 1356.46 831.457C1350.1 804.544 1344 773.83 1341.74 761.838Z" fill="#050E15"/>
<path d="M1189.13 777.76C1191.17 781.178 1198.3 782.982 1201.61 783.456L1197.35 786.589L1207 792L1237.91 786.589L1304 740.738C1304 737.89 1301.73 730.998 1292.65 726.213C1281.31 720.233 1233.94 738.174 1226 740.738C1219.65 742.788 1198.77 759.059 1189.13 766.938C1188.28 769.122 1187.09 774.343 1189.13 777.76Z" fill="#2BA597"/>
<path d="M1189.13 777.76C1191.17 781.178 1198.3 782.982 1201.61 783.456L1197.35 786.589L1207 792L1237.91 786.589L1304 740.738C1304 737.89 1301.73 730.998 1292.65 726.213C1281.31 720.233 1233.94 738.174 1226 740.738C1219.65 742.788 1198.77 759.059 1189.13 766.938C1188.28 769.122 1187.09 774.343 1189.13 777.76Z" fill="url(#paint3_linear_403_578)"/>
<path d="M1164.12 825.477C1183.36 802.709 1272.06 753.006 1314 731L1232.99 863.734C1264.37 779.941 1175.4 830.998 1127 867C1131.36 862.646 1144.88 848.245 1164.12 825.477Z" fill="#050E15"/>
<path fill-rule="evenodd" clip-rule="evenodd" d="M1284.36 746.535C1239.51 771.293 1179.41 806.908 1163.97 825.186C1144.73 847.983 1131.2 862.402 1126.84 866.762C1162.26 840.391 1219.41 805.953 1235.24 822.211C1220.18 853.384 1191.3 895.711 1174.25 918.848L1186.86 986.117C1190.99 975.451 1200.97 951.595 1207.89 941.505C1214.8 931.415 1241.13 919.082 1253.43 914.177C1267.91 913.398 1301.08 912.308 1317.9 914.177C1334.71 916.046 1409.77 973.504 1445.19 1002C1418.33 956.376 1363.02 858.4 1356.67 831.493C1350.32 804.585 1344.21 773.878 1341.96 761.888L1313.93 731.057C1313.8 731.113 1313.67 731.169 1313.54 731.226L1313.93 730.59C1311.86 731.673 1309.69 732.823 1307.41 734.034C1300.45 737.352 1292.37 741.627 1284.36 746.535Z" fill="url(#paint4_linear_403_578)"/>
<path d="M1247 740L1288 729L1286.82 739.267L1247 740Z" fill="#0F1735" fill-opacity="0.5"/>
<path d="M1420 802L1500.37 943L1536 875.554L1420 802Z" fill="#28271F"/>
<path d="M1275.27 752.257L1245 768.871L1286.47 721.546L1341.93 713L1345.93 737.302C1356.39 730.679 1405.93 729.913 1429.4 730.358L1555 852.134L1500.07 944L1533.93 876.169C1518.47 868.157 1481.83 852.134 1459 852.134C1436.17 852.134 1327 879.373 1275.27 892.993L1279.27 852.134L1314.47 774.956L1275.27 752.257Z" fill="#39382C"/>
<path d="M1275.27 752.257L1245 768.871L1286.47 721.546L1341.93 713L1345.93 737.302C1356.39 730.679 1405.93 729.913 1429.4 730.358L1555 852.134L1500.07 944L1533.93 876.169C1518.47 868.157 1481.83 852.134 1459 852.134C1436.17 852.134 1327 879.373 1275.27 892.993L1279.27 852.134L1314.47 774.956L1275.27 752.257Z" fill="url(#paint5_linear_403_578)"/>
<path opacity="0.35" d="M1202.56 783C1199.75 782.632 1197.02 781.775 1196 781.392L1229.73 752.216L1263 749L1237.93 756.581L1202.56 783Z" fill="#14244B"/>
<g style="mix-blend-mode:multiply">
<path d="M1520.1 493.401L1501 414L1590.23 429.269L1631 523L1520.1 493.401Z" fill="#D9D9D9"/>
</g>
<defs>
<linearGradient id="paint0_linear_403_578" x1="1537.68" y1="315.313" x2="1244.72" y2="691.606" gradientUnits="userSpaceOnUse">
<stop stop-color="#2BA597" stop-opacity="0"/>
<stop offset="1" stop-color="#163E4A"/>
</linearGradient>
<linearGradient id="paint1_linear_403_578" x1="1527.61" y1="582.145" x2="1395.31" y2="801.834" gradientUnits="userSpaceOnUse">
<stop stop-color="#2BA597" stop-opacity="0"/>
<stop offset="1" stop-color="#163E4A"/>
</linearGradient>
<radialGradient id="paint2_radial_403_578" cx="0" cy="0" r="1" gradientUnits="userSpaceOnUse" gradientTransform="translate(1195.71 687.375) rotate(74.3939) scale(89.7515 99.3214)">
<stop stop-color="#16484F"/>
<stop offset="1" stop-color="#0F2D31"/>
</radialGradient>
<linearGradient id="paint3_linear_403_578" x1="1219.7" y1="719.846" x2="1245.66" y2="779.629" gradientUnits="userSpaceOnUse">
<stop stop-color="#2BA597" stop-opacity="0"/>
<stop offset="1" stop-color="#1D4469"/>
</linearGradient>
<linearGradient id="paint4_linear_403_578" x1="1183.36" y1="944.541" x2="1257.17" y2="771.698" gradientUnits="userSpaceOnUse">
<stop stop-color="#0B2D2F"/>
<stop offset="1" stop-color="#2E244C" stop-opacity="0"/>
</linearGradient>
<linearGradient id="paint5_linear_403_578" x1="1441.78" y1="792.015" x2="1167.67" y2="713.211" gradientUnits="userSpaceOnUse">
<stop stop-color="#1D1D17"/>
<stop offset="1" stop-color="#39382C" stop-opacity="0"/>
</linearGradient>
</defs>
</svg>
