<svg width="487" height="479" viewBox="0 0 487 479" fill="none" xmlns="http://www.w3.org/2000/svg">
<path d="M167.775 215.628L139.342 187.194L147.405 172.766L182.204 204.17L167.775 215.628Z" fill="#299C90"/>
<path d="M198.754 190.165L156.317 232.603L214.881 283.104H287.025L198.754 190.165Z" fill="#299C90"/>
<path d="M198.754 190.165L156.317 232.603L214.881 283.104H287.025L198.754 190.165Z" fill="url(#paint0_linear_516_122)" fill-opacity="0.5"/>
<path d="M218.431 267.774L287.067 283.104H214.947L159.549 235.372L167.563 221.087L218.431 267.774Z" fill="url(#paint1_linear_516_122)" fill-opacity="0.5"/>
<path d="M156.317 241.09L143.585 230.905L194.086 170.219L216.578 190.165L156.317 241.09Z" fill="#9A9753"/>
<path d="M27.7411 343.775L57.2858 384.689L108.72 398.108L76.5592 358.892L27.7411 343.775Z" fill="#299C90"/>
<path d="M27.7411 343.775L57.2858 384.689L108.72 398.108L76.5592 358.892L27.7411 343.775Z" fill="url(#paint2_linear_516_122)"/>
<path d="M57.2855 384.688L274.615 194.522L268.008 260.29L109.029 400.712L57.2855 384.688Z" fill="#299C90"/>
<path d="M57.2855 384.688L274.615 194.522L268.008 260.29L109.029 400.712L57.2855 384.688Z" fill="url(#paint3_linear_516_122)"/>
<path d="M100.613 418.053H49.5081L0 464.767H49.5081L100.613 418.053Z" fill="#299C90"/>
<path d="M49.5082 418.053L89.8334 448.397L142.935 446.001L100.613 418.053H49.5082Z" fill="#299C90"/>
<path d="M49.5082 418.053L89.8334 448.397L142.935 446.001L100.613 418.053H49.5082Z" fill="url(#paint4_linear_516_122)"/>
<path d="M89.8333 448.397L241.184 202.453L254.328 267.233L144.001 448.397H89.8333Z" fill="#299C90"/>
<path d="M89.8333 448.397L241.184 202.453L254.328 267.233L144.001 448.397H89.8333Z" fill="url(#paint5_linear_516_122)"/>
<path d="M385.517 284.169C363.53 270.584 341.262 232.773 332.877 215.565L306.266 264.173C308.167 271.912 322.588 291.893 365.058 309.903C407.529 327.914 459.683 304.862 480.451 291.084C457.967 294.44 407.504 297.754 385.517 284.169Z" fill="#050E15"/>
<path d="M385.517 284.169C363.53 270.584 341.262 232.773 332.877 215.565L306.266 264.173C308.167 271.912 322.588 291.893 365.058 309.903C407.529 327.914 459.683 304.862 480.451 291.084C457.967 294.44 407.504 297.754 385.517 284.169Z" fill="url(#paint6_linear_516_122)"/>
<path d="M289.862 221.618L186.055 205.647L201.227 230.402L248.738 242.779L289.862 221.618Z" fill="#282820"/>
<path d="M331.272 187.533L288.833 192.033L246.034 238.171L276.745 424.747L412.087 435.289L361.982 333.16L331.272 187.533Z" fill="#39382C"/>
<path d="M331.272 187.533L288.833 192.033L246.034 238.171L276.745 424.747L412.087 435.289L361.982 333.16L331.272 187.533Z" fill="url(#paint7_linear_516_122)"/>
<path d="M260.53 477.144C213.142 366.738 240.785 254.935 260.53 212.834H367.657C378.748 339.235 349.593 441.707 333.629 477.144L314.724 413.748H284.476L260.53 477.144Z" fill="#050E15"/>
<path d="M260.53 477.144C213.142 366.738 240.785 254.935 260.53 212.834H367.657C378.748 339.235 349.593 441.707 333.629 477.144L314.724 413.748H284.476L260.53 477.144Z" fill="url(#paint8_linear_516_122)"/>
<rect x="212.712" y="26.4617" width="204.763" height="183.552" rx="88.253" transform="rotate(7.35847 212.712 26.4617)" fill="#050E15"/>
<path d="M225.981 222.017L235.962 210.04L279.481 213.633H381.293V228.006L388.08 242.779L369.714 275.917L364.923 250.365L348.154 239.185L326.993 252.361L261.515 239.185L230.772 260.745L223.585 250.365L230.772 235.193L225.981 222.017Z" fill="#2BA597"/>
<path d="M225.981 222.017L235.962 210.04L279.481 213.633H381.293V228.006L388.08 242.779L369.714 275.917L364.923 250.365L348.154 239.185L326.993 252.361L261.515 239.185L230.772 260.745L223.585 250.365L230.772 235.193L225.981 222.017Z" fill="url(#paint9_linear_516_122)"/>
<path d="M225.981 222.017L235.962 210.04L279.481 213.633H381.293V228.006L388.08 242.779L369.714 275.917L364.923 250.365L348.154 239.185L326.993 252.361L261.515 239.185L230.772 260.745L223.585 250.365L230.772 235.193L225.981 222.017Z" fill="url(#paint10_linear_516_122)"/>
<path d="M230.772 235.193L225.981 222.017H267.903L230.772 235.193Z" fill="#1D4569" fill-opacity="0.5"/>
<path d="M381.292 210.439V228.006L284.672 234.394L381.292 210.439Z" fill="#1C4468" fill-opacity="0.5"/>
<path d="M218.395 208.442L208.014 200.857L249.537 167.718L390.475 206.047C373.227 226.808 352.945 230.668 344.96 230.002L275.489 190.077L218.395 208.442Z" fill="#081D1F"/>
<path d="M252.548 37.2316L340.605 52.3776C368.213 60.5873 375.063 68.9287 396.198 92.0251C417.334 115.121 408.065 160.551 396.493 193.825C387.236 220.444 361.174 224.742 349.3 223.564L275.595 179.952L207.909 200.795C199.583 194.586 181.965 177.537 178.107 159.014C173.283 135.86 192.906 80.8808 212.025 59.4407C227.321 42.2886 245.413 37.4879 252.548 37.2316Z" fill="url(#paint11_radial_516_122)"/>
<ellipse cx="238.544" cy="116.392" rx="26.5582" ry="35.6996" transform="rotate(19.4235 238.544 116.392)" fill="#D9D9D9"/>
<ellipse cx="340.296" cy="138.204" rx="26.5582" ry="35.6996" transform="rotate(11.7399 340.296 138.204)" fill="#D9D9D9"/>
<path d="M293.909 239.583L255.482 231.999L205.427 260.819L181.663 432.727L297.448 478.737L281.268 375.592L293.909 239.583Z" fill="#39382C"/>
<path d="M293.909 239.583L255.482 231.999L205.427 260.819L181.663 432.727L297.448 478.737L281.268 375.592L293.909 239.583Z" fill="url(#paint12_linear_516_122)"/>
<path d="M293.909 239.583L255.482 231.999L205.427 260.819L181.663 432.727L297.448 478.737L281.268 375.592L293.909 239.583Z" fill="url(#paint13_linear_516_122)"/>
<path d="M178.07 267.932L186.055 205.647L233.167 234.793L293.855 239.584L233.167 261.144L199.23 306.66L166.89 277.115L178.07 267.932Z" fill="#39382C"/>
<path d="M178.07 267.932L186.055 205.647L233.167 234.793L293.855 239.584L233.167 261.144L199.23 306.66L166.89 277.115L178.07 267.932Z" fill="url(#paint14_linear_516_122)"/>
<path d="M422.816 224.551L450.719 192.073L477.115 227.299L454.49 277.514C450.217 276.265 440.161 271.418 434.128 262.025C428.095 252.631 424.072 233.128 422.816 224.551Z" fill="#264869"/>
<path d="M422.816 224.551L450.719 192.073L477.115 227.299L454.49 277.514C450.217 276.265 440.161 271.418 434.128 262.025C428.095 252.631 424.072 233.128 422.816 224.551Z" fill="url(#paint15_radial_516_122)"/>
<path d="M456.783 231.999C448.65 224.157 449.454 202.114 450.872 192.073L477.115 227.217C474.467 229.895 462.457 231.521 456.783 231.999Z" fill="url(#paint16_linear_516_122)"/>
<path d="M456.353 232.443L422.816 224.812C426.028 244.844 431.239 257.483 433.444 261.298C437.979 269.883 449.189 275.686 454.228 277.514L456.353 232.443Z" fill="url(#paint17_linear_516_122)"/>
<defs>
<linearGradient id="paint0_linear_516_122" x1="202.055" y1="122.835" x2="221.566" y2="341.985" gradientUnits="userSpaceOnUse">
<stop offset="0.284787" stop-color="#206DB2"/>
<stop offset="0.706525" stop-color="#FAED30" stop-opacity="0"/>
</linearGradient>
<linearGradient id="paint1_linear_516_122" x1="151.884" y1="201.924" x2="270.344" y2="309.583" gradientUnits="userSpaceOnUse">
<stop stop-color="white"/>
<stop offset="1" stop-color="white" stop-opacity="0"/>
</linearGradient>
<linearGradient id="paint2_linear_516_122" x1="27.2167" y1="325.222" x2="81.2549" y2="424.712" gradientUnits="userSpaceOnUse">
<stop stop-color="#299C90" stop-opacity="0"/>
<stop offset="0.744792" stop-color="#297870"/>
</linearGradient>
<linearGradient id="paint3_linear_516_122" x1="419.76" y1="86.0749" x2="61.3854" y2="422.739" gradientUnits="userSpaceOnUse">
<stop stop-color="#3FF7E3"/>
<stop offset="0.816468" stop-color="#F3FFFE" stop-opacity="0"/>
</linearGradient>
<linearGradient id="paint4_linear_516_122" x1="43.5193" y1="400.486" x2="124.569" y2="479.539" gradientUnits="userSpaceOnUse">
<stop stop-color="#299C90" stop-opacity="0"/>
<stop offset="0.744792" stop-color="#297870"/>
</linearGradient>
<linearGradient id="paint5_linear_516_122" x1="347.755" y1="55.9254" x2="105.005" y2="483.532" gradientUnits="userSpaceOnUse">
<stop stop-color="#3FF7E3"/>
<stop offset="0.816468" stop-color="#F3FFFE" stop-opacity="0"/>
</linearGradient>
<linearGradient id="paint6_linear_516_122" x1="240.354" y1="212.834" x2="642.408" y2="353.773" gradientUnits="userSpaceOnUse">
<stop offset="0.264359" stop-color="#1C344B" stop-opacity="0"/>
<stop offset="0.89282" stop-color="#2BA597"/>
</linearGradient>
<linearGradient id="paint7_linear_516_122" x1="384.932" y1="466.774" x2="292.904" y2="0.445199" gradientUnits="userSpaceOnUse">
<stop offset="0.333941" stop-color="#1D1D17"/>
<stop offset="1" stop-color="#39382C" stop-opacity="0"/>
</linearGradient>
<linearGradient id="paint8_linear_516_122" x1="302.239" y1="212.834" x2="302.239" y2="477.144" gradientUnits="userSpaceOnUse">
<stop stop-color="#2E244C" stop-opacity="0"/>
<stop offset="0.802083" stop-color="#0B2D2F"/>
</linearGradient>
<linearGradient id="paint9_linear_516_122" x1="269.899" y1="275.917" x2="473.521" y2="250.764" gradientUnits="userSpaceOnUse">
<stop stop-color="#2BA597" stop-opacity="0"/>
<stop offset="0.628768" stop-color="#1D4469"/>
</linearGradient>
<linearGradient id="paint10_linear_516_122" x1="374.505" y1="126.195" x2="204.021" y2="281.108" gradientUnits="userSpaceOnUse">
<stop offset="0.491787" stop-color="#2BA597" stop-opacity="0"/>
<stop offset="0.878282" stop-color="#1D4469"/>
</linearGradient>
<radialGradient id="paint11_radial_516_122" cx="0" cy="0" r="1" gradientUnits="userSpaceOnUse" gradientTransform="translate(261.661 130.919) rotate(99.0447) scale(110.178 128.914)">
<stop stop-color="#16484F"/>
<stop offset="1" stop-color="#0F2D31"/>
</radialGradient>
<linearGradient id="paint12_linear_516_122" x1="146.776" y1="324.526" x2="315.65" y2="276.998" gradientUnits="userSpaceOnUse">
<stop stop-color="#1D1D17"/>
<stop offset="1" stop-color="#39382C" stop-opacity="0"/>
</linearGradient>
<linearGradient id="paint13_linear_516_122" x1="205.219" y1="135.777" x2="248.738" y2="294.682" gradientUnits="userSpaceOnUse">
<stop offset="0.721321" stop-color="#1D1D17"/>
<stop offset="1" stop-color="#39382C" stop-opacity="0"/>
</linearGradient>
<linearGradient id="paint14_linear_516_122" x1="306.631" y1="195.267" x2="83.8443" y2="339.799" gradientUnits="userSpaceOnUse">
<stop stop-color="#1D1D17"/>
<stop offset="0.568248" stop-color="#39382C" stop-opacity="0"/>
</linearGradient>
<radialGradient id="paint15_radial_516_122" cx="0" cy="0" r="1" gradientUnits="userSpaceOnUse" gradientTransform="translate(442.344 250.154) rotate(74.118) scale(246.285 211.18)">
<stop offset="0.138327" stop-color="white" stop-opacity="0"/>
<stop offset="1" stop-color="#2BA597"/>
</radialGradient>
<linearGradient id="paint16_linear_516_122" x1="447.562" y1="169.839" x2="481.091" y2="268.83" gradientUnits="userSpaceOnUse">
<stop stop-color="#2BA597"/>
<stop offset="0.797681" stop-color="#3B8EA8" stop-opacity="0"/>
</linearGradient>
<linearGradient id="paint17_linear_516_122" x1="335.901" y1="414.159" x2="424.255" y2="204.194" gradientUnits="userSpaceOnUse">
<stop stop-color="#2BA597"/>
<stop offset="0.922891" stop-color="#6BE7F1" stop-opacity="0"/>
</linearGradient>
</defs>
</svg>
