<svg width="2285" height="1568" viewBox="0 0 2285 1568" fill="none" xmlns="http://www.w3.org/2000/svg">
<g filter="url(#filter0_f_525_139)">
<ellipse cx="1235.5" cy="799" rx="700.5" ry="490" fill="url(#paint0_radial_525_139)"/>
</g>
<path d="M672 852L648.5 1228.5H715L749.5 955.5L715 748.5L581 477L672 852Z" fill="#09131C"/>
<path d="M1777 857.5V525.5L1815.5 409V741L1867.5 780V1120.5L1815.5 1189.5V918L1777 857.5Z" fill="#09131C"/>
<path d="M1657.5 1008.5L1653.5 1004.5L1690 994L1705 1006L1657.5 1008.5Z" fill="#C94D18"/>
<path d="M861 1071C857.4 1052.6 882.167 1033.67 895 1026.5H1003.5C1010 1067 1016.6 1147.1 991 1143.5C959 1139 865.5 1094 861 1071Z" fill="#0D1D2C"/>
<path d="M861 1071C857.4 1052.6 882.167 1033.67 895 1026.5H1003.5C1010 1067 1016.6 1147.1 991 1143.5C959 1139 865.5 1094 861 1071Z" fill="url(#paint1_linear_525_139)"/>
<path d="M861 1071C857.4 1052.6 882.167 1033.67 895 1026.5H1003.5C1010 1067 1016.6 1147.1 991 1143.5C959 1139 865.5 1094 861 1071Z" fill="url(#paint2_linear_525_139)"/>
<path d="M1224.39 1139.81C1230.57 1094.4 1188.11 1047.68 1166.11 1030H980.102C968.959 1129.94 957.644 1327.59 1001.53 1318.71C1056.39 1307.61 1216.68 1196.56 1224.39 1139.81Z" fill="#0D1D2C"/>
<path d="M1224.39 1139.81C1230.57 1094.4 1188.11 1047.68 1166.11 1030H980.102C968.959 1129.94 957.644 1327.59 1001.53 1318.71C1056.39 1307.61 1216.68 1196.56 1224.39 1139.81Z" fill="url(#paint3_linear_525_139)"/>
<path d="M1224.39 1139.81C1230.57 1094.4 1188.11 1047.68 1166.11 1030H980.102C968.959 1129.94 957.644 1327.59 1001.53 1318.71C1056.39 1307.61 1216.68 1196.56 1224.39 1139.81Z" fill="url(#paint4_linear_525_139)"/>
<path d="M1688.39 1124.81C1694.57 1079.4 1652.11 1032.68 1630.11 1015H1444.1C1432.96 1114.94 1421.64 1312.59 1465.53 1303.71C1520.39 1292.61 1680.68 1181.56 1688.39 1124.81Z" fill="#0D1D2C"/>
<path d="M1016.13 999.355C953.435 1001.17 853.92 1026.42 812 1038.82L1566.1 1055L1705 1006.17C1501.5 1003.14 1078.82 997.538 1016.13 999.355Z" fill="#C94D18"/>
<path d="M1016.13 999.355C953.435 1001.17 853.92 1026.42 812 1038.82L1566.1 1055L1705 1006.17C1501.5 1003.14 1078.82 997.538 1016.13 999.355Z" fill="url(#paint5_linear_525_139)"/>
<ellipse cx="316.704" cy="15.0763" rx="316.704" ry="15.0763" transform="matrix(0.999876 0.0157641 -0.0434414 0.999056 934.31 1001.41)" fill="url(#paint6_radial_525_139)"/>
<path d="M1001.13 987.355C938.435 989.172 838.92 1014.42 797 1026.82L1551.1 1043L1690 994.169C1486.5 991.14 1063.82 985.538 1001.13 987.355Z" fill="#E4674B"/>
<path d="M1001.13 987.355C938.435 989.172 838.92 1014.42 797 1026.82L1551.1 1043L1690 994.169C1486.5 991.14 1063.82 985.538 1001.13 987.355Z" fill="url(#paint7_linear_525_139)"/>
<ellipse cx="316.704" cy="15.0763" rx="316.704" ry="15.0763" transform="matrix(0.999876 0.0157641 -0.0434414 0.999056 919.31 989.408)" fill="url(#paint8_radial_525_139)"/>
<path d="M1562.49 687.856L1595.27 644.713C1621.49 713.474 1720.35 812.937 1766.5 854.073C1753.12 880.293 1725.48 884.395 1713.32 883.169L1562.49 687.856Z" fill="#83673F"/>
<path d="M1562.49 687.856L1595.27 644.713C1621.49 713.474 1720.35 812.937 1766.5 854.073C1753.12 880.293 1725.48 884.395 1713.32 883.169L1562.49 687.856Z" fill="url(#paint9_linear_525_139)"/>
<path d="M1562.49 687.856L1595.27 644.713C1621.49 713.474 1720.35 812.937 1766.5 854.073C1753.12 880.293 1725.48 884.395 1713.32 883.169L1562.49 687.856Z" fill="url(#paint10_linear_525_139)"/>
<path d="M1687.64 587.903C1675.67 562.378 1641.28 547.731 1616.34 542.374C1604.62 544.48 1578.93 549.012 1570.83 550.468C1560.7 552.288 1487.64 614.617 1483.31 641.842C1478.98 669.066 1483.56 677.467 1497.23 719.292C1510.89 761.117 1520.89 772.236 1542.21 750.569C1563.53 728.903 1653.95 701.584 1667.62 688.672C1681.29 675.761 1686 647.238 1696.85 639.139C1707.69 631.04 1699.61 613.428 1687.64 587.903Z" fill="#0D1D2C"/>
<path d="M1528.04 634.68C1540.62 613.543 1592.14 564.336 1616.34 542.374C1655.13 548.728 1678.21 572.808 1682.55 579.497C1686.03 584.848 1688.91 590.645 1689.91 592.875C1669.85 622.082 1624.83 681.635 1605.3 686.184C1585.77 690.732 1553.01 684.288 1539.08 680.498C1529.98 670.063 1527.93 645.605 1528.04 634.68Z" fill="url(#paint11_linear_525_139)"/>
<path d="M1528.04 634.68C1540.62 613.543 1592.14 564.336 1616.34 542.374C1655.13 548.728 1678.21 572.808 1682.55 579.497C1686.03 584.848 1688.91 590.645 1689.91 592.875C1669.85 622.082 1624.83 681.635 1605.3 686.184C1585.77 690.732 1553.01 684.288 1539.08 680.498C1529.98 670.063 1527.93 645.605 1528.04 634.68Z" fill="url(#paint12_linear_525_139)"/>
<path d="M1528.04 634.68C1540.62 613.543 1592.14 564.336 1616.34 542.374C1655.13 548.728 1678.21 572.808 1682.55 579.497C1686.03 584.848 1688.91 590.645 1689.91 592.875C1669.85 622.082 1624.83 681.635 1605.3 686.184C1585.77 690.732 1553.01 684.288 1539.08 680.498C1529.98 670.063 1527.93 645.605 1528.04 634.68Z" fill="url(#paint13_linear_525_139)"/>
<path d="M1578.37 697.904C1588.55 697.42 1605.25 708.997 1612.32 714.846C1554.11 736.023 1543.2 749.938 1537.14 755.383C1532.29 759.739 1527.03 761.232 1525.01 761.433C1507.43 757.803 1535.92 718.475 1541.38 707.585C1546.84 696.694 1565.63 698.509 1578.37 697.904Z" fill="url(#paint14_linear_525_139)"/>
<path d="M1584.56 561.771L1559.82 565.45C1549.34 577.379 1526.17 603.911 1517.34 614.613C1508.51 625.315 1501.4 636.017 1498.95 640.031L1524.36 629.663C1529.18 621.904 1555.36 593.878 1567.84 580.835L1561.49 582.841L1584.56 561.771Z" fill="url(#paint15_linear_525_139)"/>
<path d="M1699.95 618.626C1698.07 612.473 1692.48 599.117 1689.91 593.209C1688.58 596.687 1685.34 602.462 1683.89 604.914L1614.66 693.541C1621.62 702.37 1646.77 693.876 1658.48 688.525L1666.84 655.081V682.505C1672.52 678.157 1674.19 656.418 1675.87 650.398C1677.54 644.378 1684.56 639.362 1691.59 635.014C1697.2 631.536 1699.5 622.64 1699.95 618.626Z" fill="url(#paint16_linear_525_139)"/>
<path d="M1564.82 588.927C1555.2 603.858 1534.51 607.59 1525.37 607.59C1504.97 589.214 1501.32 575.049 1502.04 570.263C1513.39 550.547 1544.13 550.084 1558.08 552.318C1563.86 556.529 1564.98 578.478 1564.82 588.927Z" fill="#83673F"/>
<path d="M1564.82 588.927C1555.2 603.858 1534.51 607.59 1525.37 607.59C1504.97 589.214 1501.32 575.049 1502.04 570.263C1513.39 550.547 1544.13 550.084 1558.08 552.318C1563.86 556.529 1564.98 578.478 1564.82 588.927Z" fill="url(#paint17_linear_525_139)"/>
<path d="M1706.5 767C1650.9 878.2 1489.33 902 1415.5 900L1510.5 963C1633.7 976.2 1692.5 837.833 1706.5 767Z" fill="#050E15"/>
<path d="M1706.5 767C1650.9 878.2 1489.33 902 1415.5 900L1510.5 963C1633.7 976.2 1692.5 837.833 1706.5 767Z" fill="url(#paint18_linear_525_139)"/>
<path d="M1706.5 767C1650.9 878.2 1489.33 902 1415.5 900L1510.5 963C1633.7 976.2 1692.5 837.833 1706.5 767Z" fill="url(#paint19_linear_525_139)"/>
<rect x="1124.25" y="609.753" width="354.108" height="317.426" rx="122.206" transform="rotate(3.84269 1124.25 609.753)" fill="#050E15"/>
<rect x="1124.25" y="609.753" width="354.108" height="317.426" rx="122.206" transform="rotate(3.84269 1124.25 609.753)" fill="url(#paint20_linear_525_139)"/>
<rect x="1124.25" y="609.753" width="354.108" height="317.426" rx="122.206" transform="rotate(3.84269 1124.25 609.753)" fill="url(#paint21_linear_525_139)"/>
<path d="M1251 764L1057.5 811.5C1049.5 913.333 1023.3 1134.6 982.5 1205C941.7 1275.4 741.5 1377 646.5 1419C802.5 1493.5 1010 1361.5 1132 1344.5C1254 1327.5 1529.5 1527.5 1702.5 1490.5C1840.9 1460.9 2004.5 1263.17 2069 1168C2030.5 1195.17 1923.7 1240.6 1804.5 1205C1685.3 1169.4 1546.5 927.833 1492 811.5L1251 764Z" fill="#39382C"/>
<path d="M1251 764L1057.5 811.5C1049.5 913.333 1023.3 1134.6 982.5 1205C941.7 1275.4 741.5 1377 646.5 1419C802.5 1493.5 1010 1361.5 1132 1344.5C1254 1327.5 1529.5 1527.5 1702.5 1490.5C1840.9 1460.9 2004.5 1263.17 2069 1168C2030.5 1195.17 1923.7 1240.6 1804.5 1205C1685.3 1169.4 1546.5 927.833 1492 811.5L1251 764Z" fill="url(#paint22_linear_525_139)"/>
<path d="M1251 764L1057.5 811.5C1049.5 913.333 1023.3 1134.6 982.5 1205C941.7 1275.4 741.5 1377 646.5 1419C802.5 1493.5 1010 1361.5 1132 1344.5C1254 1327.5 1529.5 1527.5 1702.5 1490.5C1840.9 1460.9 2004.5 1263.17 2069 1168C2030.5 1195.17 1923.7 1240.6 1804.5 1205C1685.3 1169.4 1546.5 927.833 1492 811.5L1251 764Z" fill="url(#paint23_linear_525_139)"/>
<path d="M1251 764L1057.5 811.5C1049.5 913.333 1023.3 1134.6 982.5 1205C941.7 1275.4 741.5 1377 646.5 1419C802.5 1493.5 1010 1361.5 1132 1344.5C1254 1327.5 1529.5 1527.5 1702.5 1490.5C1840.9 1460.9 2004.5 1263.17 2069 1168C2030.5 1195.17 1923.7 1240.6 1804.5 1205C1685.3 1169.4 1546.5 927.833 1492 811.5L1251 764Z" fill="url(#paint24_linear_525_139)"/>
<path d="M1251 764L1057.5 811.5C1049.5 913.333 1023.3 1134.6 982.5 1205C941.7 1275.4 741.5 1377 646.5 1419C802.5 1493.5 1010 1361.5 1132 1344.5C1254 1327.5 1529.5 1527.5 1702.5 1490.5C1840.9 1460.9 2004.5 1263.17 2069 1168C2030.5 1195.17 1923.7 1240.6 1804.5 1205C1685.3 1169.4 1546.5 927.833 1492 811.5L1251 764Z" fill="url(#paint25_radial_525_139)"/>
<path d="M1251 764L1057.5 811.5C1049.5 913.333 1023.3 1134.6 982.5 1205C941.7 1275.4 741.5 1377 646.5 1419C802.5 1493.5 1010 1361.5 1132 1344.5C1254 1327.5 1529.5 1527.5 1702.5 1490.5C1840.9 1460.9 2004.5 1263.17 2069 1168C2030.5 1195.17 1923.7 1240.6 1804.5 1205C1685.3 1169.4 1546.5 927.833 1492 811.5L1251 764Z" fill="url(#paint26_radial_525_139)"/>
<path d="M988.5 645C1054.1 653.4 1206.83 755.167 1275 805L1154 853.5C1131.33 817.333 1066.5 735.5 988.5 697.5C891 650 733 785.5 536 853.5C378.4 907.9 223.667 758.5 166 677L240.5 490.5C296 578.667 436.2 753 553 745C699 735 906.5 634.5 988.5 645Z" fill="#299C90"/>
<path d="M988.5 645C1054.1 653.4 1206.83 755.167 1275 805L1154 853.5C1131.33 817.333 1066.5 735.5 988.5 697.5C891 650 733 785.5 536 853.5C378.4 907.9 223.667 758.5 166 677L240.5 490.5C296 578.667 436.2 753 553 745C699 735 906.5 634.5 988.5 645Z" fill="url(#paint27_linear_525_139)"/>
<path d="M988.5 645C1054.1 653.4 1206.83 755.167 1275 805L1154 853.5C1131.33 817.333 1066.5 735.5 988.5 697.5C891 650 733 785.5 536 853.5C378.4 907.9 223.667 758.5 166 677L240.5 490.5C296 578.667 436.2 753 553 745C699 735 906.5 634.5 988.5 645Z" fill="url(#paint28_linear_525_139)"/>
<path d="M1276.82 521.5C1347.62 540.7 1387.65 721.833 1398.82 810L1232.32 830.5C1225.65 816.833 1208.22 766.4 1191.82 674C1171.32 558.5 1086.32 558.5 828.317 521.5C621.917 491.9 767.317 244.167 865.817 124H1167.82C1071.65 212.333 884.817 404.6 906.817 467C934.317 545 1188.32 497.5 1276.82 521.5Z" fill="#299C90"/>
<path d="M1276.82 521.5C1347.62 540.7 1387.65 721.833 1398.82 810L1232.32 830.5C1225.65 816.833 1208.22 766.4 1191.82 674C1171.32 558.5 1086.32 558.5 828.317 521.5C621.917 491.9 767.317 244.167 865.817 124H1167.82C1071.65 212.333 884.817 404.6 906.817 467C934.317 545 1188.32 497.5 1276.82 521.5Z" fill="url(#paint29_linear_525_139)"/>
<path d="M1276.82 521.5C1347.62 540.7 1387.65 721.833 1398.82 810L1232.32 830.5C1225.65 816.833 1208.22 766.4 1191.82 674C1171.32 558.5 1086.32 558.5 828.317 521.5C621.917 491.9 767.317 244.167 865.817 124H1167.82C1071.65 212.333 884.817 404.6 906.817 467C934.317 545 1188.32 497.5 1276.82 521.5Z" fill="url(#paint30_linear_525_139)"/>
<path d="M1057 813L1257.5 675L1490 801L1478.5 887.5L1279 987L1075 887.5L1057 813Z" fill="#39382C"/>
<path d="M1057 813L1257.5 675L1490 801L1478.5 887.5L1279 987L1075 887.5L1057 813Z" fill="url(#paint31_linear_525_139)"/>
<path d="M1057 813L1257.5 675L1490 801L1478.5 887.5L1279 987L1075 887.5L1057 813Z" fill="url(#paint32_linear_525_139)"/>
<path d="M1057 813L1257.5 675L1490 801L1478.5 887.5L1279 987L1075 887.5L1057 813Z" fill="url(#paint33_linear_525_139)"/>
<path d="M812 1039L797 1027L851.5 1028L861.5 1040L812 1039Z" fill="#CB6E23"/>
<defs>
<filter id="filter0_f_525_139" x="361" y="135" width="1749" height="1328" filterUnits="userSpaceOnUse" color-interpolation-filters="sRGB">
<feFlood flood-opacity="0" result="BackgroundImageFix"/>
<feBlend mode="normal" in="SourceGraphic" in2="BackgroundImageFix" result="shape"/>
<feGaussianBlur stdDeviation="87" result="effect1_foregroundBlur_525_139"/>
</filter>
<radialGradient id="paint0_radial_525_139" cx="0" cy="0" r="1" gradientUnits="userSpaceOnUse" gradientTransform="translate(1235.5 799) rotate(90) scale(2444.26 3494.3)">
<stop offset="0.0520833" stop-color="#B86E2A" stop-opacity="0.43"/>
<stop offset="0.205058" stop-color="#FFF84F" stop-opacity="0"/>
</radialGradient>
<linearGradient id="paint1_linear_525_139" x1="935" y1="1076.5" x2="1009" y2="1304.5" gradientUnits="userSpaceOnUse">
<stop stop-color="#6BE7F1" stop-opacity="0"/>
<stop offset="1" stop-color="#6BE7F1" stop-opacity="0.41"/>
</linearGradient>
<linearGradient id="paint2_linear_525_139" x1="935" y1="1027" x2="935" y2="1072" gradientUnits="userSpaceOnUse">
<stop stop-color="#FAED30" stop-opacity="0.4"/>
<stop offset="1" stop-color="#FAAA35" stop-opacity="0"/>
</linearGradient>
<linearGradient id="paint3_linear_525_139" x1="1007" y1="1089" x2="1097.5" y2="1319" gradientUnits="userSpaceOnUse">
<stop stop-color="#206DB2" stop-opacity="0"/>
<stop offset="1" stop-color="#206DB2" stop-opacity="0.28"/>
</linearGradient>
<linearGradient id="paint4_linear_525_139" x1="1019.5" y1="1030" x2="999.5" y2="1134.5" gradientUnits="userSpaceOnUse">
<stop stop-color="#E48023" stop-opacity="0.49"/>
<stop offset="0.572917" stop-color="#FFEB39" stop-opacity="0"/>
</linearGradient>
<linearGradient id="paint5_linear_525_139" x1="1097.5" y1="1011.34" x2="1238.43" y2="1079.88" gradientUnits="userSpaceOnUse">
<stop stop-color="#CC822B" stop-opacity="0.63"/>
<stop offset="1" stop-color="#E4B04B" stop-opacity="0"/>
</linearGradient>
<radialGradient id="paint6_radial_525_139" cx="0" cy="0" r="1" gradientUnits="userSpaceOnUse" gradientTransform="translate(316.704 15.0763) rotate(92.022) scale(15.0857 316.65)">
<stop stop-color="#FAED30"/>
<stop offset="1" stop-color="#FAED30" stop-opacity="0"/>
</radialGradient>
<linearGradient id="paint7_linear_525_139" x1="1082.5" y1="999.344" x2="1223.43" y2="1067.88" gradientUnits="userSpaceOnUse">
<stop stop-color="#E49E4B" stop-opacity="0.63"/>
<stop offset="1" stop-color="#E4B04B" stop-opacity="0"/>
</linearGradient>
<radialGradient id="paint8_radial_525_139" cx="0" cy="0" r="1" gradientUnits="userSpaceOnUse" gradientTransform="translate(316.704 15.0763) rotate(92.022) scale(15.0857 316.65)">
<stop stop-color="#FAED30"/>
<stop offset="1" stop-color="#FAED30" stop-opacity="0"/>
</radialGradient>
<linearGradient id="paint9_linear_525_139" x1="1596.94" y1="693.876" x2="1775.53" y2="889.858" gradientUnits="userSpaceOnUse">
<stop offset="0.0811059" stop-color="#3D352B" stop-opacity="0.63"/>
<stop offset="0.78053" stop-color="#E6C89C" stop-opacity="0"/>
</linearGradient>
<linearGradient id="paint10_linear_525_139" x1="1766.17" y1="1043.03" x2="1788.91" y2="638.693" gradientUnits="userSpaceOnUse">
<stop offset="0.258655" stop-color="#3D352B" stop-opacity="0.63"/>
<stop offset="0.55426" stop-color="#050E15" stop-opacity="0"/>
</linearGradient>
<linearGradient id="paint11_linear_525_139" x1="1608.98" y1="369.468" x2="1608.98" y2="747.052" gradientUnits="userSpaceOnUse">
<stop stop-color="#6BE7F1" stop-opacity="0.32"/>
<stop offset="0.656284" stop-color="#6BE7F1" stop-opacity="0"/>
</linearGradient>
<linearGradient id="paint12_linear_525_139" x1="2001.61" y1="542.708" x2="1500.28" y2="781.165" gradientUnits="userSpaceOnUse">
<stop offset="0.140948" stop-color="#6BE7F1" stop-opacity="0.32"/>
<stop offset="0.705102" stop-color="#6BE7F1" stop-opacity="0"/>
</linearGradient>
<linearGradient id="paint13_linear_525_139" x1="2023.35" y1="808.923" x2="1413.33" y2="515.619" gradientUnits="userSpaceOnUse">
<stop offset="0.140948" stop-color="#6BE7F1" stop-opacity="0.76"/>
<stop offset="0.684385" stop-color="#6BE7F1" stop-opacity="0"/>
</linearGradient>
<linearGradient id="paint14_linear_525_139" x1="1575.94" y1="697.299" x2="1549.97" y2="773.568" gradientUnits="userSpaceOnUse">
<stop stop-color="#206DB2" stop-opacity="0.29"/>
<stop offset="1" stop-color="#206DB2" stop-opacity="0"/>
</linearGradient>
<linearGradient id="paint15_linear_525_139" x1="1706.97" y1="588.192" x2="1433.06" y2="636.352" gradientUnits="userSpaceOnUse">
<stop offset="0.314598" stop-color="#2BA597" stop-opacity="0.19"/>
<stop offset="0.677288" stop-color="#2BA597" stop-opacity="0"/>
</linearGradient>
<linearGradient id="paint16_linear_525_139" x1="1636.07" y1="535.351" x2="1632.39" y2="773.138" gradientUnits="userSpaceOnUse">
<stop offset="0.349785" stop-color="#6BE7F1" stop-opacity="0.1"/>
<stop offset="0.624556" stop-color="#6BE7F1" stop-opacity="0"/>
</linearGradient>
<linearGradient id="paint17_linear_525_139" x1="1536.4" y1="611.604" x2="1558.48" y2="563.779" gradientUnits="userSpaceOnUse">
<stop stop-color="#54432A"/>
<stop offset="1" stop-color="#83673F" stop-opacity="0"/>
</linearGradient>
<linearGradient id="paint18_linear_525_139" x1="1744.5" y1="711" x2="1547" y2="949" gradientUnits="userSpaceOnUse">
<stop stop-color="#1C344B"/>
<stop offset="1" stop-color="#2BA597" stop-opacity="0"/>
</linearGradient>
<linearGradient id="paint19_linear_525_139" x1="1735" y1="1146.5" x2="1522" y2="681.5" gradientUnits="userSpaceOnUse">
<stop offset="0.20728" stop-color="#FA3030"/>
<stop offset="0.616803" stop-color="#FAED30" stop-opacity="0"/>
</linearGradient>
<linearGradient id="paint20_linear_525_139" x1="1510.16" y1="1076.69" x2="1301.98" y2="924.296" gradientUnits="userSpaceOnUse">
<stop stop-color="#FAD232"/>
<stop offset="1" stop-color="#FAD232" stop-opacity="0"/>
</linearGradient>
<linearGradient id="paint21_linear_525_139" x1="992.964" y1="1120.95" x2="1301.98" y2="924.296" gradientUnits="userSpaceOnUse">
<stop stop-color="#FAD232"/>
<stop offset="1" stop-color="#FAD232" stop-opacity="0"/>
</linearGradient>
<linearGradient id="paint22_linear_525_139" x1="1398.5" y1="764" x2="1765" y2="1933" gradientUnits="userSpaceOnUse">
<stop offset="0.205713" stop-color="#39382C" stop-opacity="0"/>
<stop offset="0.706224" stop-color="#1D1D17"/>
</linearGradient>
<linearGradient id="paint23_linear_525_139" x1="1398.5" y1="764" x2="98" y2="945" gradientUnits="userSpaceOnUse">
<stop stop-color="#39382C" stop-opacity="0"/>
<stop offset="0.865843" stop-color="#1D1D17"/>
</linearGradient>
<linearGradient id="paint24_linear_525_139" x1="1269.5" y1="1130" x2="1208" y2="198.5" gradientUnits="userSpaceOnUse">
<stop stop-color="#39382C" stop-opacity="0"/>
<stop offset="0.472828" stop-color="#1D1D17"/>
</linearGradient>
<radialGradient id="paint25_radial_525_139" cx="0" cy="0" r="1" gradientUnits="userSpaceOnUse" gradientTransform="translate(1844.5 879) rotate(114.854) scale(584.098 1136.51)">
<stop stop-color="#B0A327"/>
<stop offset="0.568708" stop-color="#DC6E1E" stop-opacity="0"/>
</radialGradient>
<radialGradient id="paint26_radial_525_139" cx="0" cy="0" r="1" gradientUnits="userSpaceOnUse" gradientTransform="translate(646 537.5) rotate(42.4423) scale(1291.4 2512.76)">
<stop stop-color="#B0A327"/>
<stop offset="0.568708" stop-color="#DC6E1E" stop-opacity="0"/>
</radialGradient>
<linearGradient id="paint27_linear_525_139" x1="-265.5" y1="930" x2="493" y2="865" gradientUnits="userSpaceOnUse">
<stop stop-color="#206DB2"/>
<stop offset="1" stop-color="#206DB2" stop-opacity="0"/>
</linearGradient>
<linearGradient id="paint28_linear_525_139" x1="1110.5" y1="1220.5" x2="536" y2="678" gradientUnits="userSpaceOnUse">
<stop stop-color="white"/>
<stop offset="1" stop-color="#A4B2BE" stop-opacity="0"/>
</linearGradient>
<linearGradient id="paint29_linear_525_139" x1="853.5" y1="-229" x2="1138" y2="431" gradientUnits="userSpaceOnUse">
<stop offset="0.134121" stop-color="#206DB2"/>
<stop offset="1" stop-color="#206DB2" stop-opacity="0"/>
</linearGradient>
<linearGradient id="paint30_linear_525_139" x1="992" y1="686.5" x2="1101.5" y2="453" gradientUnits="userSpaceOnUse">
<stop offset="0.354767" stop-color="white" stop-opacity="0.31"/>
<stop offset="1" stop-color="#D2EAFF" stop-opacity="0"/>
</linearGradient>
<linearGradient id="paint31_linear_525_139" x1="1273" y1="956.5" x2="1291.5" y2="815.5" gradientUnits="userSpaceOnUse">
<stop stop-color="#2B2A21"/>
<stop offset="1" stop-color="#2B2A21" stop-opacity="0"/>
</linearGradient>
<linearGradient id="paint32_linear_525_139" x1="884.5" y1="393" x2="1221" y2="788" gradientUnits="userSpaceOnUse">
<stop stop-color="#FFEB00"/>
<stop offset="1" stop-color="#CB2929" stop-opacity="0"/>
</linearGradient>
<linearGradient id="paint33_linear_525_139" x1="1744" y1="531.5" x2="1337" y2="831" gradientUnits="userSpaceOnUse">
<stop stop-color="#FFEB00"/>
<stop offset="1" stop-color="#CB2929" stop-opacity="0"/>
</linearGradient>
</defs>
</svg>
